# xmcd
#
# Track frame offsets: 
#        150
#        20329
#        45126
#        58652
#        84828
#        108428
#        131741
#        151780
#        175337
#        193684
#        214265
#        241707
#        248909
#        348914
#
# Disc length: 4656 seconds
#
# Revision: 0
# Processed by: cddbd v1.5.2PL0 Copyright (c) Steve Scherf et al.
# Submitted via: ExactAudioCopy v0.99pb3
#
DISCID=b0122e0e
DTITLE=Theodis Ealey - It's A Real Good Thang
DYEAR=2002
DGENRE=Blues
TTITLE0=All My Baby Left Me Was A Note, My Guitar And A Cookie Jar 200
TTITLE0=2
TTITLE1=Reconsider Baby
TTITLE2=Baby, You've Got What It Takes
TTITLE3=You've Got To Hurt Before You Heal
TTITLE4=It's A Real Good Thang
TTITLE5=If You Leave Me, I'm Going Wit'cha 2002
TTITLE6=I Want You
TTITLE7=Ain't No Sunshine
TTITLE8=You And I Together
TTITLE9=Theo's Groove
TTITLE10=All My Baby Left Me Was A Note, My Guitar And A Cookie Jar 20
TTITLE10=02 (Radio Mix)
TTITLE11=Data
TTITLE12=Video
TTITLE13=Data2
EXTD=
EXTT0=
EXTT1=
EXTT2=
EXTT3=
EXTT4=
EXTT5=
EXTT6=
EXTT7=
EXTT8=
EXTT9=
EXTT10=
EXTT11=
EXTT12=
EXTT13=
PLAYORDER=
